<svg width="22" height="22" viewBox="0 0 22 22" fill="none" xmlns="http://www.w3.org/2000/svg">
    <path fill-rule="evenodd" clip-rule="evenodd" d="M20.7533 4.32263C20.6963 4.24116 20.6238 4.17173 20.54 4.11832C20.4562 4.06491 20.3626 4.02857 20.2647 4.01138C20.1668 3.99419 20.0664 3.99649 19.9694 4.01815C19.8724 4.03981 19.7806 4.08039 19.6993 4.13759L1.13493 17.1345C1.20451 17.2341 1.29715 17.3155 1.40495 17.3716C1.51275 17.4277 1.63252 17.4569 1.75405 17.4568L1.75482 17.4576H20.1342C20.552 17.4576 20.8905 17.1183 20.8905 16.7004V4.7436C20.8881 4.59219 20.8403 4.44499 20.7533 4.32109V4.32263ZM2.18967 4.13682C2.07722 4.05819 1.94549 4.01163 1.8086 4.00213C1.67172 3.99263 1.53482 4.02055 1.41259 4.0829C1.29035 4.14524 1.18738 4.23967 1.1147 4.35605C1.04202 4.47244 1.00237 4.60641 1 4.7436V16.7228L9.83809 9.483L2.19044 4.13527" fill="#242748"/>
</svg>
